<svg width="210" height="208" viewBox="0 0 210 208" fill="none" xmlns="http://www.w3.org/2000/svg">
<rect x="8" y="56" width="146" height="144" stroke="black" stroke-width="16"/>
<rect x="50" y="96" width="100" height="16" fill="black"/>
<rect x="16" y="32" width="162" height="16" fill="black"/>
<rect x="34" y="16" width="162" height="16" fill="black"/>
<rect x="210" y="14" width="162" height="16" transform="rotate(90 210 14)" fill="black"/>
<rect x="170" y="176" width="8" height="8" transform="rotate(90 170 176)" fill="black"/>
<rect x="170" y="160" width="8" height="8" transform="rotate(90 170 160)" fill="black"/>
<rect x="170" y="144" width="8" height="8" transform="rotate(90 170 144)" fill="black"/>
<rect x="170" y="128" width="8" height="8" transform="rotate(90 170 128)" fill="black"/>
<rect x="170" y="112" width="8" height="8" transform="rotate(90 170 112)" fill="black"/>
<rect x="170" y="96" width="8" height="8" transform="rotate(90 170 96)" fill="black"/>
<rect x="170" y="80" width="8" height="8" transform="rotate(90 170 80)" fill="black"/>
<rect x="170" y="64" width="8" height="8" transform="rotate(90 170 64)" fill="black"/>
<rect x="170" y="48" width="8" height="8" transform="rotate(90 170 48)" fill="black"/>
<rect x="178" y="184" width="8" height="8" transform="rotate(90 178 184)" fill="black"/>
<rect x="178" y="168" width="8" height="8" transform="rotate(90 178 168)" fill="black"/>
<rect x="178" y="152" width="8" height="8" transform="rotate(90 178 152)" fill="black"/>
<rect x="178" y="136" width="8" height="8" transform="rotate(90 178 136)" fill="black"/>
<rect x="178" y="120" width="8" height="8" transform="rotate(90 178 120)" fill="black"/>
<rect x="178" y="104" width="8" height="8" transform="rotate(90 178 104)" fill="black"/>
<rect x="178" y="88" width="8" height="8" transform="rotate(90 178 88)" fill="black"/>
<rect x="178" y="72" width="8" height="8" transform="rotate(90 178 72)" fill="black"/>
<rect x="178" y="56" width="8" height="8" transform="rotate(90 178 56)" fill="black"/>
<rect x="178" y="40" width="8" height="8" transform="rotate(90 178 40)" fill="black"/>
<rect x="186" y="160" width="8" height="8" transform="rotate(90 186 160)" fill="black"/>
<rect x="186" y="144" width="8" height="8" transform="rotate(90 186 144)" fill="black"/>
<rect x="186" y="128" width="8" height="8" transform="rotate(90 186 128)" fill="black"/>
<rect x="186" y="112" width="8" height="8" transform="rotate(90 186 112)" fill="black"/>
<rect x="186" y="96" width="8" height="8" transform="rotate(90 186 96)" fill="black"/>
<rect x="186" y="80" width="8" height="8" transform="rotate(90 186 80)" fill="black"/>
<rect x="186" y="64" width="8" height="8" transform="rotate(90 186 64)" fill="black"/>
<rect x="186" y="48" width="8" height="8" transform="rotate(90 186 48)" fill="black"/>
<rect x="186" y="32" width="8" height="8" transform="rotate(90 186 32)" fill="black"/>
<rect x="194" y="168" width="8" height="8" transform="rotate(90 194 168)" fill="black"/>
<rect x="194" y="152" width="8" height="8" transform="rotate(90 194 152)" fill="black"/>
<rect x="194" y="136" width="8" height="8" transform="rotate(90 194 136)" fill="black"/>
<rect x="194" y="120" width="8" height="8" transform="rotate(90 194 120)" fill="black"/>
<rect x="194" y="104" width="8" height="8" transform="rotate(90 194 104)" fill="black"/>
<rect x="194" y="88" width="8" height="8" transform="rotate(90 194 88)" fill="black"/>
<rect x="194" y="72" width="8" height="8" transform="rotate(90 194 72)" fill="black"/>
<rect x="194" y="56" width="8" height="8" transform="rotate(90 194 56)" fill="black"/>
<rect x="194" y="40" width="8" height="8" transform="rotate(90 194 40)" fill="black"/>
<rect x="194" y="24" width="8" height="8" transform="rotate(90 194 24)" fill="black"/>
<rect x="178" y="192" width="16" height="16" transform="rotate(90 178 192)" fill="black"/>
<rect x="194" y="176" width="16" height="16" transform="rotate(90 194 176)" fill="black"/>
<rect x="50" width="146" height="16" fill="black"/>
<rect x="15" y="144" width="100" height="16" fill="black"/>
</svg>
